<svg width="172" height="246" viewBox="0 0 172 246" fill="none" xmlns="http://www.w3.org/2000/svg">
<path d="M84.5956 114.407C87.8246 126.136 79.2867 139.061 69.4999 142.058C59.7131 145.055 46.3425 138.839 43.1134 127.11C39.8844 115.38 46.6631 99.1279 56.4498 96.1309C69.4999 92.1346 81.3665 102.677 84.5956 114.407Z" fill="#F3F4F6"/>
<path d="M87.8468 111.804C84.6177 123.533 93.1557 136.458 102.943 139.455C112.729 142.452 126.1 136.236 129.329 124.507C132.558 112.777 125.779 96.5249 115.993 93.5279C102.943 89.5316 91.0759 100.074 87.8468 111.804Z" fill="#F3F4F6"/>
<path d="M41.8468 111.804C38.6177 123.533 47.1557 136.458 56.9425 139.455C66.7293 142.452 80.0999 136.236 83.329 124.507C86.558 112.777 79.7793 96.5249 69.9925 93.5279C56.9425 89.5316 45.0759 100.074 41.8468 111.804Z" fill="#F3F4F6"/>
<path fill-rule="evenodd" clip-rule="evenodd" d="M85.5865 246C135.447 246 172 232.034 172 194.462C172 147.458 135.447 112 85.5865 112C35.726 112 0 150.757 0 194.462C0 232.034 35.726 246 85.5865 246ZM81.4627 237.269C120.698 237.269 149.461 226.297 149.461 196.781C149.461 159.855 120.698 132 81.4627 132C42.2276 132 14.115 162.447 14.115 196.781C14.115 226.297 42.2276 237.269 81.4627 237.269Z" fill="#F3F4F6"/>
<path fill-rule="evenodd" clip-rule="evenodd" d="M43 0C29.7452 0 19 10.7452 19 24V48.52C19 61.7748 29.7452 72.52 43 72.52H48.7248L58.8749 82.8801L69.0249 72.52H140C153.255 72.52 164 61.7748 164 48.52V24C164 10.7452 153.255 0 140 0H43Z" fill="#F3F4F6"/>
<path d="M83.7689 113.512C86.8599 124.158 78.687 135.889 69.3186 138.609C59.9502 141.329 47.1513 135.687 44.0603 125.042C40.9692 114.396 47.4581 99.6452 56.8265 96.9251C69.3186 93.298 80.6779 102.866 83.7689 113.512Z" fill="#222327"/>
<path d="M88.9181 113.512C85.8271 124.158 94 135.889 103.368 138.609C112.737 141.329 125.536 135.687 128.627 125.042C131.718 114.396 125.229 99.6452 115.861 96.9251C103.368 93.298 92.0091 102.866 88.9181 113.512Z" fill="#222327"/>
<path d="M145.913 191.449C145.913 218.238 119.807 228.196 84.1972 228.196C48.587 228.196 23.0718 218.238 23.0718 191.449C23.0718 160.287 48.587 132.653 84.1972 132.653C119.807 132.653 145.913 157.935 145.913 191.449Z" fill="#F3D6DD"/>
<path d="M75.1733 198.543C74.5654 197.659 73.3558 197.435 72.4715 198.043C71.5873 198.651 71.3633 199.86 71.9712 200.745L75.1733 198.543ZM83.7867 196.858L85.6241 196.227C85.3544 195.442 84.6163 194.915 83.7867 194.915C82.9571 194.915 82.219 195.442 81.9493 196.227L83.7867 196.858ZM95.6021 200.745C96.21 199.86 95.986 198.651 95.1018 198.043C94.2176 197.435 93.0079 197.659 92.4 198.543L95.6021 200.745ZM71.9712 200.745C72.4294 201.411 73.2464 202.285 74.3361 203.006C75.438 203.734 76.9229 204.373 78.6795 204.373V200.487C77.8825 200.487 77.133 200.197 76.4792 199.764C75.8133 199.324 75.3536 198.805 75.1733 198.543L71.9712 200.745ZM78.6795 204.373C80.9134 204.373 82.5353 202.789 83.5009 201.512C84.5319 200.149 85.256 198.561 85.6241 197.49L81.9493 196.227C81.679 197.013 81.1263 198.21 80.4016 199.168C79.6116 200.213 78.9991 200.487 78.6795 200.487V204.373ZM81.9493 197.49C82.3174 198.561 83.0415 200.149 84.0724 201.512C85.038 202.789 86.66 204.373 88.8939 204.373V200.487C88.5742 200.487 87.9617 200.213 87.1717 199.168C86.4471 198.21 85.8944 197.013 85.6241 196.227L81.9493 197.49ZM88.8939 204.373C90.6505 204.373 92.1354 203.734 93.2372 203.006C94.327 202.285 95.144 201.411 95.6021 200.745L92.4 198.543C92.2198 198.805 91.76 199.324 91.0941 199.764C90.4404 200.197 89.6909 200.487 88.8939 200.487V204.373Z" fill="#222327"/>
<path d="M92.2898 195.427C92.2898 196.685 86.7535 198.277 84.6539 198.835C84.1324 198.974 83.5866 198.974 83.0651 198.835C80.9654 198.277 75.4292 196.685 75.4292 195.427C75.4292 193.875 80.0904 192.216 83.8595 192.216C87.6286 192.216 92.2898 193.875 92.2898 195.427Z" fill="#222327"/>
<path d="M82.8582 154.144C59.4314 154.144 50.8221 145.941 49.4292 141.143L60.5722 129.072L84.7153 124.893L118.144 141.143C116.132 145.013 106.311 154.144 82.8582 154.144Z" fill="#222327"/>
<path fill-rule="evenodd" clip-rule="evenodd" d="M86.0986 242.362C134.51 242.362 170 228.764 170 192.182C170 146.417 134.51 111.893 86.0986 111.893C37.6874 111.893 3 149.629 3 192.182C3 228.764 37.6874 242.362 86.0986 242.362ZM84.1973 228.311C119.807 228.311 145.913 218.353 145.913 191.564C145.913 158.05 119.807 132.768 84.1973 132.768C48.5872 132.768 23.072 160.402 23.072 191.564C23.072 218.353 48.5872 228.311 84.1973 228.311Z" fill="white"/>
<path d="M72.3712 182.47C72.3712 190.518 67.1878 199.347 59.9444 199.347C52.701 199.347 41 192.789 41 180.767C41 169.473 53.6406 165.457 66.7025 167.519C74.7081 168.783 72.3712 174.422 72.3712 182.47Z" fill="#222327"/>
<path d="M65.1797 180L48.9998 180.299L49.0306 181.964L57.1205 181.814L65.2104 181.665L65.1797 180Z" fill="white"/>
<path d="M64.9678 180L48.9999 182.628L49.2703 184.271L57.2542 182.957L65.2382 181.643L64.9678 180Z" fill="white"/>
<path d="M65.1338 182L48.9998 183.253L49.1287 184.913L57.1957 184.287L65.2628 183.66L65.1338 182Z" fill="white"/>
<path d="M94.4072 182.47C94.4072 190.518 99.5905 199.347 106.834 199.347C114.077 199.347 125.778 192.789 125.778 180.767C125.778 169.473 113.138 165.457 100.076 167.519C92.0702 168.783 94.4072 174.422 94.4072 182.47Z" fill="#222327"/>
<path fill-rule="evenodd" clip-rule="evenodd" d="M44 1C30.7452 1 20 11.7452 20 25V46.58C20 59.8348 30.7452 70.58 44 70.58H49.11L59.05 80.52L68.99 70.58H138C151.255 70.58 162 59.8348 162 46.58V25C162 11.7452 151.255 1 138 1H44Z" fill="white"/>
<path d="M40.8213 54H38.7998C38.7412 54 38.7119 53.9707 38.7119 53.9121L38.7471 41.5459C38.7471 41.499 38.7705 41.4756 38.8174 41.4756H42.2803C43.3818 41.4756 44.252 41.8125 44.8906 42.4863C45.5352 43.1543 45.8574 44.0654 45.8574 45.2197C45.8574 46.0635 45.6904 46.7988 45.3564 47.4258C45.0166 48.0469 44.5771 48.5273 44.0381 48.8672C43.499 49.207 42.9131 49.377 42.2803 49.377H40.9092V53.9121C40.9092 53.9707 40.8799 54 40.8213 54ZM42.2803 43.6113L40.9092 43.6289V47.1973H42.2803C42.6611 47.1973 42.9922 47.0156 43.2734 46.6523C43.5547 46.2832 43.6953 45.8057 43.6953 45.2197C43.6953 44.751 43.5693 44.3672 43.3174 44.0684C43.0654 43.7637 42.7197 43.6113 42.2803 43.6113ZM46.512 53.9121L48.7445 41.5459C48.7562 41.499 48.7855 41.4756 48.8323 41.4756H51.4427C51.4896 41.4756 51.5189 41.499 51.5306 41.5459L53.6751 53.9121C53.681 53.9707 53.6575 54 53.6048 54H51.6097C51.5511 54 51.5189 53.9707 51.513 53.9121L51.3196 52.5938H48.8675L48.6741 53.9121C48.6683 53.9707 48.639 54 48.5863 54H46.5823C46.5355 54 46.512 53.9707 46.512 53.9121ZM50.0364 45.6152L49.2279 50.6689H50.9593L50.221 45.6152L50.1155 44.9473L50.0364 45.6152ZM58.276 54.1758C57.6256 54.1758 57.0397 54.0146 56.5182 53.6924C55.9909 53.3701 55.5661 52.9365 55.2438 52.3916C54.9274 51.8467 54.7692 51.2373 54.7692 50.5635V44.8594C54.7692 44.2031 54.9303 43.6055 55.2526 43.0664C55.569 42.5215 55.9938 42.0879 56.527 41.7656C57.0602 41.4375 57.6432 41.2734 58.276 41.2734C58.9381 41.2734 59.5358 41.4316 60.069 41.748C60.6022 42.0703 61.0241 42.501 61.3346 43.04C61.651 43.5791 61.8092 44.1855 61.8092 44.8594V45.6855C61.8092 45.7324 61.7799 45.7559 61.7213 45.7559H59.6998C59.653 45.7559 59.6295 45.7324 59.6295 45.6855V45C59.6295 44.543 59.5006 44.165 59.2428 43.8662C58.985 43.5674 58.6627 43.418 58.276 43.418C57.9303 43.418 57.6227 43.5615 57.3532 43.8486C57.0836 44.1357 56.9489 44.4727 56.9489 44.8594V50.5635C56.9489 50.9561 57.0807 51.2959 57.3444 51.583C57.608 51.8643 57.9186 52.0049 58.276 52.0049C58.6627 52.0049 58.985 51.8672 59.2428 51.5918C59.5006 51.3105 59.6295 50.9678 59.6295 50.5635V49.6758H58.3727C58.3082 49.6758 58.276 49.6465 58.276 49.5879V47.5752C58.276 47.5166 58.3082 47.4873 58.3727 47.4873H61.7389C61.7858 47.4873 61.8092 47.5166 61.8092 47.5752V50.5635C61.8092 51.2373 61.651 51.8467 61.3346 52.3916C61.0123 52.9365 60.5875 53.3701 60.0602 53.6924C59.5329 54.0146 58.9381 54.1758 58.276 54.1758ZM69.1523 54H63.3339C63.2871 54 63.2636 53.9707 63.2636 53.9121L63.2812 41.5459C63.2812 41.499 63.3046 41.4756 63.3515 41.4756H69.1347C69.1816 41.4756 69.205 41.5049 69.205 41.5635V43.5762C69.205 43.623 69.1816 43.6465 69.1347 43.6465H65.4433V46.459H69.1347C69.1816 46.459 69.205 46.4824 69.205 46.5293L69.2226 48.5684C69.2226 48.6152 69.1992 48.6387 69.1523 48.6387H65.4433V51.7852H69.1523C69.1992 51.7852 69.2226 51.8145 69.2226 51.873V53.9297C69.2226 53.9766 69.1992 54 69.1523 54ZM77.818 54H76.0162C75.9225 54 75.8756 53.959 75.8756 53.877L75.858 41.6162C75.858 41.5225 75.9049 41.4756 75.9986 41.4756H77.6246L80.6656 48.5684L80.5777 41.6162C80.5777 41.5225 80.6305 41.4756 80.7359 41.4756H82.5201C82.5904 41.4756 82.6256 41.5225 82.6256 41.6162L82.6432 53.8945C82.6432 53.9648 82.6139 54 82.5553 54H80.9732L77.8531 47.373L77.985 53.8594C77.985 53.9531 77.9293 54 77.818 54ZM87.7187 54.1758C87.08 54.1758 86.4911 54.0117 85.9521 53.6836C85.4189 53.3555 84.9882 52.9189 84.6601 52.374C84.3378 51.8232 84.1767 51.2197 84.1767 50.5635L84.1943 44.8594C84.1943 44.1914 84.3554 43.5908 84.6777 43.0576C84.9941 42.5186 85.4218 42.0879 85.9609 41.7656C86.4999 41.4375 87.0859 41.2734 87.7187 41.2734C88.3749 41.2734 88.9638 41.4346 89.4853 41.7568C90.0126 42.0791 90.4345 42.5127 90.7509 43.0576C91.0732 43.5967 91.2343 44.1973 91.2343 44.8594L91.2519 50.5635C91.2519 51.2197 91.0937 51.8203 90.7773 52.3652C90.455 52.916 90.0273 53.3555 89.4941 53.6836C88.9609 54.0117 88.3691 54.1758 87.7187 54.1758ZM87.7187 52.0049C88.082 52.0049 88.3984 51.8584 88.6679 51.5654C88.9374 51.2666 89.0722 50.9326 89.0722 50.5635L89.0546 44.8594C89.0546 44.4609 88.9286 44.124 88.6767 43.8486C88.4247 43.5732 88.1054 43.4355 87.7187 43.4355C87.3495 43.4355 87.0331 43.5703 86.7695 43.8398C86.5058 44.1094 86.3739 44.4492 86.3739 44.8594V50.5635C86.3739 50.9561 86.5058 51.2959 86.7695 51.583C87.0331 51.8643 87.3495 52.0049 87.7187 52.0049ZM96.635 54H94.6047C94.552 54 94.5256 53.9707 94.5256 53.9121V43.6465H92.1877C92.1291 43.6465 92.0998 43.6172 92.0998 43.5586L92.1174 41.5459C92.1174 41.499 92.1409 41.4756 92.1877 41.4756H99.0256C99.0901 41.4756 99.1223 41.499 99.1223 41.5459V43.5586C99.1223 43.6172 99.0989 43.6465 99.052 43.6465H96.6877L96.7053 53.9121C96.7053 53.9707 96.6819 54 96.635 54ZM107.146 54H105.125C105.066 54 105.037 53.9707 105.037 53.9121L105.072 41.5459C105.072 41.499 105.096 41.4756 105.142 41.4756H110.908C110.967 41.4756 110.996 41.499 110.996 41.5459V43.5762C110.996 43.623 110.973 43.6465 110.926 43.6465H107.234V46.4414H110.926C110.973 46.4414 110.996 46.4707 110.996 46.5293L111.014 48.5684C111.014 48.6152 110.984 48.6387 110.926 48.6387H107.234V53.9121C107.234 53.9707 107.205 54 107.146 54ZM115.404 54.1758C114.765 54.1758 114.176 54.0117 113.637 53.6836C113.104 53.3555 112.673 52.9189 112.345 52.374C112.023 51.8232 111.862 51.2197 111.862 50.5635L111.879 44.8594C111.879 44.1914 112.04 43.5908 112.363 43.0576C112.679 42.5186 113.107 42.0879 113.646 41.7656C114.185 41.4375 114.771 41.2734 115.404 41.2734C116.06 41.2734 116.649 41.4346 117.17 41.7568C117.697 42.0791 118.119 42.5127 118.436 43.0576C118.758 43.5967 118.919 44.1973 118.919 44.8594L118.937 50.5635C118.937 51.2197 118.779 51.8203 118.462 52.3652C118.14 52.916 117.712 53.3555 117.179 53.6836C116.646 54.0117 116.054 54.1758 115.404 54.1758ZM115.404 52.0049C115.767 52.0049 116.083 51.8584 116.353 51.5654C116.622 51.2666 116.757 50.9326 116.757 50.5635L116.739 44.8594C116.739 44.4609 116.613 44.124 116.362 43.8486C116.11 43.5732 115.79 43.4355 115.404 43.4355C115.034 43.4355 114.718 43.5703 114.454 43.8398C114.191 44.1094 114.059 44.4492 114.059 44.8594V50.5635C114.059 50.9561 114.191 51.2959 114.454 51.583C114.718 51.8643 115.034 52.0049 115.404 52.0049ZM123.793 54.1758C123.16 54.1758 122.574 54.0117 122.035 53.6836C121.496 53.3555 121.065 52.916 120.743 52.3652C120.426 51.8086 120.268 51.2021 120.268 50.5459L120.303 41.5459C120.303 41.499 120.327 41.4756 120.374 41.4756H122.395C122.442 41.4756 122.465 41.499 122.465 41.5459V50.5459C122.465 50.9502 122.594 51.2959 122.852 51.583C123.11 51.8643 123.423 52.0049 123.793 52.0049C124.179 52.0049 124.501 51.8643 124.759 51.583C125.017 51.2959 125.146 50.9502 125.146 50.5459V41.5459C125.146 41.499 125.169 41.4756 125.216 41.4756H127.238C127.285 41.4756 127.308 41.499 127.308 41.5459L127.343 50.5459C127.343 51.208 127.185 51.8174 126.869 52.374C126.546 52.9248 126.119 53.3643 125.585 53.6924C125.052 54.0146 124.455 54.1758 123.793 54.1758ZM130.898 54H129.097C129.003 54 128.956 53.959 128.956 53.877L128.938 41.6162C128.938 41.5225 128.985 41.4756 129.079 41.4756H130.705L133.746 48.5684L133.658 41.6162C133.658 41.5225 133.711 41.4756 133.816 41.4756H135.6C135.671 41.4756 135.706 41.5225 135.706 41.6162L135.723 53.8945C135.723 53.9648 135.694 54 135.636 54H134.054L130.933 47.373L131.065 53.8594C131.065 53.9531 131.01 54 130.898 54ZM140.781 53.9824L137.556 54C137.497 54 137.468 53.9707 137.468 53.9121L137.503 41.5459C137.503 41.499 137.527 41.4756 137.573 41.4756L140.94 41.458C141.608 41.4404 142.211 41.5928 142.75 41.915C143.295 42.2373 143.729 42.6738 144.051 43.2246C144.379 43.7695 144.543 44.373 144.543 45.0352V50.2031C144.543 50.8945 144.376 51.5273 144.042 52.1016C143.702 52.6699 143.251 53.124 142.689 53.4639C142.126 53.7979 141.49 53.9707 140.781 53.9824ZM140.94 43.6113L139.683 43.6289L139.665 51.7852H140.781C141.227 51.7852 141.602 51.6299 141.906 51.3193C142.211 51.0088 142.363 50.6367 142.363 50.2031V45.0176C142.363 44.6367 142.223 44.3057 141.942 44.0244C141.66 43.7373 141.326 43.5996 140.94 43.6113Z" fill="#374151"/>
<path d="M80.5176 35H77.1338C77.0557 35 77.0166 34.9512 77.0166 34.8535V31.3379H70.5273C70.4492 31.3379 70.4102 31.2891 70.4102 31.1914V27.8955L76.9434 14.2432C76.9922 14.165 77.0557 14.126 77.1338 14.126H80.5176C80.5762 14.126 80.6055 14.165 80.6055 14.2432L80.6348 27.7637H82.7441C82.8418 27.7637 82.8906 27.8174 82.8906 27.9248V31.1914C82.8906 31.2891 82.8516 31.3379 82.7734 31.3379H80.6348V34.8535C80.6348 34.9512 80.5957 35 80.5176 35ZM73.9551 27.7637H77.0166V21.2305L73.9551 27.7637ZM91.174 35.293C89.9045 35.293 88.7766 35.0195 87.7902 34.4727C86.8137 33.9258 86.0471 33.1982 85.4904 32.29C84.9436 31.3721 84.6701 30.3662 84.6701 29.2725L84.6994 19.7656C84.6994 18.6523 84.9777 17.6514 85.5344 16.7627C86.0813 15.8643 86.843 15.1465 87.8195 14.6094C88.7961 14.0625 89.9143 13.7891 91.174 13.7891C92.4631 13.7891 93.5861 14.0576 94.5432 14.5947C95.5002 15.1318 96.2521 15.8545 96.799 16.7627C97.3557 17.6611 97.634 18.6621 97.634 19.7656L97.6633 29.2725C97.6633 30.3564 97.3898 31.3574 96.843 32.2754C96.2863 33.1934 95.5197 33.9258 94.5432 34.4727C93.5764 35.0195 92.4533 35.293 91.174 35.293ZM94.0305 29.2725L94.0012 19.7656C94.0012 19.0625 93.7375 18.4912 93.2102 18.0518C92.6926 17.6123 92.0139 17.3926 91.174 17.3926C90.3146 17.3926 89.6262 17.6123 89.1086 18.0518C88.591 18.4912 88.3322 19.0625 88.3322 19.7656V29.2725C88.3322 30.0146 88.591 30.6006 89.1086 31.0303C89.6262 31.46 90.3146 31.6748 91.174 31.6748C92.0139 31.6748 92.6975 31.46 93.2248 31.0303C93.7619 30.6006 94.0305 30.0146 94.0305 29.2725ZM109.565 35H106.181C106.103 35 106.064 34.9512 106.064 34.8535V31.3379H99.5746C99.4965 31.3379 99.4574 31.2891 99.4574 31.1914V27.8955L105.991 14.2432C106.039 14.165 106.103 14.126 106.181 14.126H109.565C109.623 14.126 109.653 14.165 109.653 14.2432L109.682 27.7637H111.791C111.889 27.7637 111.938 27.8174 111.938 27.9248V31.1914C111.938 31.2891 111.899 31.3379 111.821 31.3379H109.682V34.8535C109.682 34.9512 109.643 35 109.565 35ZM103.002 27.7637H106.064V21.2305L103.002 27.7637Z" fill="#374151"/>
<rect x="103.086" y="179.057" width="16.1826" height="1.66502" transform="rotate(4.81318 103.086 179.057)" fill="white"/>
<path d="M103.177 180L119.268 181.723L119.091 183.379L111.045 182.517L103 181.656L103.177 180Z" fill="white"/>
<path d="M103.193 181.943L119.318 183.301L119.179 184.96L111.116 184.281L103.053 183.603L103.193 181.943Z" fill="white"/>
</svg>
